<svg width="94" height="107" viewBox="0 0 94 107" fill="none" xmlns="http://www.w3.org/2000/svg">
<path d="M28.8466 10.2278C27.5705 10.9779 26.6974 12.4098 26.6974 13.9098V21.5466L64.5103 43.8432C64.5103 43.8432 64.7118 43.8432 64.779 44.3205V88.5047C64.779 88.7093 64.5103 88.982 64.5103 88.982L51.2792 96.7551C51.2792 96.7551 50.6076 96.9597 50.5404 96.2779V52.571L7.55586 27.0014C7.55586 27.0014 7.35438 27.0014 7.28722 26.5241V22.5012C5.20515 23.6604 3.19026 24.8195 1.10819 26.0468C0.503725 26.3878 0.100745 27.0696 0.100745 27.8197C-0.0335816 45.1388 -0.0335816 62.4579 0.100745 79.777C0.100745 80.527 0.503719 81.2089 1.17535 81.5498L28.981 97.437V88.8457L7.75736 76.2313C7.62303 76.095 7.55587 75.9586 7.48871 75.754V36.4792C7.62303 35.4564 8.16034 35.9337 8.29467 36.0701L42.9509 57.2758C42.9509 57.2758 43.1524 57.2758 43.2196 57.6849C43.2196 72.9584 43.0852 88.232 43.2196 103.506C43.2867 106.028 46.3091 107.869 48.6598 106.574L71.9655 93.2095V39.7521L33.4137 16.91C32.8093 16.4327 33.4137 16.0236 33.4137 16.0236L46.5777 8.52318H47.1151L85.9354 31.1608C85.9354 31.1608 86.1369 31.1608 86.2041 31.6381V38.4566V85.2318C88.2861 84.0045 90.4354 82.8453 92.5174 81.618C93.1219 81.2771 93.5249 80.5952 93.5249 79.8452C93.6592 62.5261 93.6592 45.207 93.5249 27.8879C93.5249 27.1378 93.1219 26.456 92.4503 26.115L46.7792 0C40.8689 3.34109 34.8242 6.75036 28.8466 10.2278Z" fill="url(#paint0_linear_1_39)"/>
<defs>
<linearGradient id="paint0_linear_1_39" x1="-1.24159e-06" y1="79.8542" x2="94.284" y2="29.114" gradientUnits="userSpaceOnUse">
<stop stop-color="#BB4FFF"/>
<stop offset="1" stop-color="#628BFF"/>
</linearGradient>
</defs>
</svg>
